<svg version="1.2" xmlns="http://www.w3.org/2000/svg" xmlns:xlink="http://www.w3.org/1999/xlink" overflow="visible" preserveAspectRatio="none" viewBox="0 0 5.498325904210408 9.771732966105143" width="5.498325904210408" height="9.771732966105143"><g transform="translate(0, 0)"><defs><path id="path-1634063591152471" d="M13.566664976456652 10.56000022689543 C13.566664976456652 10.56000022689543 9.294998841977733 6.28833346844641 9.294998841977733 6.28833346844641 C9.056665538337278 6.050000129992173 8.662498920778063 6.0591667968557985 8.424165617137609 6.2975001353100355 C8.314165630842016 6.407500137673529 8.249998972169585 6.5633334743551455 8.249998972169585 6.719166811036763 C8.249998972169585 6.719166811036763 8.249998972169585 15.271666994798426 8.249998972169585 15.271666994798426 C8.249998972169585 15.601667001888908 8.515832272383937 15.876667007797643 8.845832231270721 15.885833674661269 C9.010832210714113 15.885833674661269 9.166665524632872 15.821667006615897 9.2858321764531 15.70250033738878 C9.2858321764531 15.70250033738878 13.557498310932019 11.43083357893976 13.557498310932019 11.43083357893976 C13.795831614572473 11.210833574212772 13.814164945621739 10.835000232804168 13.59416497303055 10.587500227486306 C13.584998307505916 10.578333560622678 13.575831641981283 10.569166893759053 13.566664976456652 10.56000022689543 Z" vector-effect="non-scaling-stroke"/></defs><g transform="translate(-8.249998972169585, -6.114100708556127)"><path style="stroke-width: 0; stroke-linecap: butt; stroke-linejoin: miter; fill: rgb(0, 51, 102);" d="M13.566664976456652 10.56000022689543 C13.566664976456652 10.56000022689543 9.294998841977733 6.28833346844641 9.294998841977733 6.28833346844641 C9.056665538337278 6.050000129992173 8.662498920778063 6.0591667968557985 8.424165617137609 6.2975001353100355 C8.314165630842016 6.407500137673529 8.249998972169585 6.5633334743551455 8.249998972169585 6.719166811036763 C8.249998972169585 6.719166811036763 8.249998972169585 15.271666994798426 8.249998972169585 15.271666994798426 C8.249998972169585 15.601667001888908 8.515832272383937 15.876667007797643 8.845832231270721 15.885833674661269 C9.010832210714113 15.885833674661269 9.166665524632872 15.821667006615897 9.2858321764531 15.70250033738878 C9.2858321764531 15.70250033738878 13.557498310932019 11.43083357893976 13.557498310932019 11.43083357893976 C13.795831614572473 11.210833574212772 13.814164945621739 10.835000232804168 13.59416497303055 10.587500227486306 C13.584998307505916 10.578333560622678 13.575831641981283 10.569166893759053 13.566664976456652 10.56000022689543 Z" vector-effect="non-scaling-stroke"/></g></g></svg>