<?xml version="1.0" encoding="UTF-8"?><svg id="PDF_preview" xmlns="http://www.w3.org/2000/svg" xmlns:xlink="http://www.w3.org/1999/xlink" viewBox="0 0 40.34 61.53"><defs><style>.cls-1{fill:#fff;}.cls-2{fill:url(#linear-gradient);stroke:#0c70ba;stroke-miterlimit:10;stroke-width:1.38px;}</style><linearGradient id="linear-gradient" x1="20.09" y1="1.28" x2="20.09" y2="57.84" gradientUnits="userSpaceOnUse"><stop offset="0" stop-color="#7fbcea"/><stop offset=".14" stop-color="#68ace1"/><stop offset=".35" stop-color="#4d99d7"/><stop offset=".56" stop-color="#398bd0"/><stop offset=".78" stop-color="#2d83cc"/><stop offset="1" stop-color="#2a81cb"/></linearGradient></defs><path class="cls-2" d="M20.45,59.18S2.84,34.61,2.09,21.04C.74-3.39,39.11-3.66,38.11,21.04c-.55,13.48-17.66,38.14-17.66,38.14Z"/><g><path class="cls-1" d="M13.96,9.94c0-.41-.41-.75-.91-.75s-.91,.34-.91,.75c0,.27,.18,.51,.44,.64v25.03h0c.01,.23,.21,.42,.46,.42s.45-.18,.46-.42h0s0-.02,0-.02h0V10.58c.26-.13,.44-.37,.44-.64Z"/><path class="cls-1" d="M13.39,25.06s1.62-2.36,1.82-6.82c.21-4.56-1.82-6.62-1.82-6.62l21.95,6.48-21.95,6.96Z"/></g></svg>