<?xml version="1.0" encoding="UTF-8"?>
<svg id="land" xmlns="http://www.w3.org/2000/svg" xmlns:xlink="http://www.w3.org/1999/xlink" viewBox="0 0 56.02 87.28">
  <defs>
    <style>
      .cls-1 {
        fill: #fff;
      }

      .cls-2 {
        fill: url(#linear-gradient);
        stroke: #fff200;
        stroke-miterlimit: 10;
        stroke-width: 2px;
      }
    </style>
    <linearGradient id="linear-gradient" x1="1.86" y1="43.52" x2="54.16" y2="43.52" gradientUnits="userSpaceOnUse">
      <stop offset="0" stop-color="#ce79b1"/>
      <stop offset=".09" stop-color="#c071ad"/>
      <stop offset=".31" stop-color="#a560a6"/>
      <stop offset=".54" stop-color="#9155a1"/>
      <stop offset=".77" stop-color="#854e9e"/>
      <stop offset="1" stop-color="#824c9e"/>
    </linearGradient>
  </defs>
  <path class="cls-2" d="M28.53,84.52S3,48.9,1.91,29.23C-.04-6.19,55.58-6.57,54.13,29.23c-.79,19.55-25.6,55.29-25.6,55.29Z"/>
  <path class="cls-1" d="M20.31,11.92c-2.4,0-4.35,1.95-4.35,4.35v26.09c0,2.4,1.95,4.35,4.35,4.35h17.39c2.4,0,4.35-1.95,4.35-4.35V22.79h-8.7c-1.2,0-2.17-.97-2.17-2.17V11.92h-10.87Zm13.04,0v8.7h8.7l-8.7-8.7Zm-11.96,4.35h4.35c.6,0,1.09,.49,1.09,1.09s-.49,1.09-1.09,1.09h-4.35c-.6,0-1.09-.49-1.09-1.09s.49-1.09,1.09-1.09Zm0,4.35h4.35c.6,0,1.09,.49,1.09,1.09s-.49,1.09-1.09,1.09h-4.35c-.6,0-1.09-.49-1.09-1.09s.49-1.09,1.09-1.09Zm3.68,17.24c-.41,1.38-1.68,2.32-3.12,2.32h-.56c-.6,0-1.09-.49-1.09-1.09s.49-1.09,1.09-1.09h.56c.48,0,.9-.31,1.04-.77l1.01-3.36c.23-.77,.94-1.3,1.74-1.3s1.51,.52,1.74,1.3l.79,2.62c.5-.42,1.14-.66,1.82-.66,1.08,0,2.07,.61,2.55,1.58l.3,.6h3.68c.6,0,1.09,.49,1.09,1.09s-.49,1.09-1.09,1.09h-4.35c-.41,0-.79-.23-.97-.6l-.6-1.2c-.12-.23-.35-.37-.6-.37s-.49,.14-.6,.37l-.6,1.2c-.2,.4-.62,.64-1.07,.6s-.82-.35-.94-.77l-1.15-3.78-.67,2.23Z"/>
</svg>