<svg width="24" height="24" viewBox="0 0 24 24" fill="none" xmlns="http://www.w3.org/2000/svg">
<path d="M16.5896 7.61509H15.446V6.44474H16.5896V7.61509ZM16.5896 9.95579H15.446V8.78544H16.5896V9.95579ZM14.3024 7.61509H13.1588V6.44474H14.3024V7.61509ZM14.3024 9.95579H13.1588V8.78544H14.3024V9.95579ZM14.8666 0L6.8615 5.85175V8.78544H9.14867L18.4498 12.6086C19.7306 13.1391 20.5845 14.4031 20.5845 15.8075H22.8717V5.85175L14.8666 0ZM21.7281 18.1482H13.723L11.3291 17.29L11.7103 16.1821L13.723 16.9623H16.9403C17.6874 16.9623 18.2973 16.3381 18.2973 15.5735C18.2973 14.9961 17.9466 14.4812 17.413 14.2783L9.10292 11.1105H6.84625V21.6593L14.8513 23.9844L24 20.4734C24 19.1782 22.9784 18.1327 21.7128 18.1327L21.7281 18.1482ZM0 24H5.32433V11.1261H0V24Z" />
</svg>
