<svg width="51" height="59" viewBox="0 0 51 59" fill="none" xmlns="http://www.w3.org/2000/svg">
<path d="M6.29785 9.57422H31.4912C34.2679 9.57423 36.5391 11.8488 36.5391 14.6592V55.834C36.539 56.5159 36.1661 57.1555 35.5635 57.501C35.0149 57.8154 34.3417 57.8285 33.7715 57.5361L33.6592 57.4736L19.541 48.9531L18.8945 48.5635L18.249 48.9531L4.12012 57.4736C3.53485 57.8243 2.80439 57.8319 2.20801 57.4961C1.62473 57.1676 1.25008 56.5295 1.25 55.834V14.6592C1.25 11.8489 3.52129 9.57443 6.29785 9.57422Z" fill="white" stroke="#003366" stroke-width="2.5"/>
<path d="M12.3135 5.28516H37.5068C40.2836 5.28517 42.5547 7.55975 42.5547 10.3701V51.5449C42.5546 52.2269 42.1818 52.8664 41.5791 53.2119C41.0305 53.5263 40.3573 53.5394 39.7871 53.2471L39.6748 53.1846L25.5566 44.6641L24.9102 44.2744L24.2646 44.6641L10.1357 53.1846C9.55048 53.5353 8.82002 53.5428 8.22363 53.207C7.64036 52.8785 7.2657 52.2404 7.26562 51.5449V10.3701C7.26562 7.55988 9.53691 5.28537 12.3135 5.28516Z" fill="white" stroke="#003366" stroke-width="2.5"/>
<path d="M18.6732 0C15.1994 0 12.375 2.84067 12.375 6.33461V47.5095C12.375 48.6478 12.9851 49.7069 13.9692 50.2611C14.9533 50.8154 16.1638 50.8055 17.138 50.2215L31.2697 41.6995L45.3915 50.2215C46.3658 50.8055 47.5762 50.8253 48.5603 50.2611C49.5444 49.697 50.1644 48.6478 50.1644 47.5095V6.33461C50.1644 2.84067 47.3401 0 43.8662 0L18.6732 0Z" fill="#003366"/>
<path d="M32.1318 11.4062C32.4196 11.4063 32.7441 11.6585 32.7441 12.0938V20.8115H41.2764C41.5641 20.8118 41.8887 21.0639 41.8887 21.499C41.8886 21.9341 41.564 22.1863 41.2764 22.1865H32.7441V30.2324C32.7441 30.6677 32.4196 30.9199 32.1318 30.9199C31.844 30.9199 31.5195 30.6677 31.5195 30.2324V22.1865H22.9873C22.6996 22.1863 22.375 21.9341 22.375 21.499C22.375 21.0639 22.6996 20.8117 22.9873 20.8115H31.5195V12.0938C31.5195 11.6584 31.844 11.4062 32.1318 11.4062Z" fill="white" stroke="white" stroke-width="4"/>
</svg>
