<svg width="44" height="59" viewBox="0 0 44 59" fill="none" xmlns="http://www.w3.org/2000/svg">
<path d="M7.33333 0C3.28854 0 0 3.30753 0 7.37568V55.3176C0 56.6429 0.710416 57.876 1.85625 58.5214C3.00208 59.1668 4.41146 59.1552 5.54583 58.4753L22 48.5527L38.4427 58.4753C39.5771 59.1552 40.9865 59.1783 42.1323 58.5214C43.2781 57.8645 44 56.6429 44 55.3176V7.37568C44 3.30753 40.7115 0 36.6667 0H7.33333Z" fill="#003366"/>
<path d="M22.5 10C22.8792 10 23.2773 10.3281 23.2773 10.8574V20H32.2227C32.6017 20.0003 33 20.3284 33 20.8574C32.9999 21.3863 32.6016 21.7136 32.2227 21.7139H23.2773V30.1426C23.2773 30.6719 22.8792 31 22.5 31C22.1208 31 21.7227 30.6719 21.7227 30.1426V21.7139H12.7773C12.3984 21.7136 12.0001 21.3863 12 20.8574C12 20.3284 12.3983 20.0003 12.7773 20H21.7227V10.8574C21.7227 10.3281 22.1208 10 22.5 10Z" fill="white" stroke="white" stroke-width="4"/>
</svg>
