<svg width="24" height="24" viewBox="0 0 24 24" fill="none" xmlns="http://www.w3.org/2000/svg">
<g clip-path="url(#clip0_6583_18815)">
<path d="M16.75 9.41129C17.28 9.41129 17.79 9.46173 18.29 9.57269V4.02477L9.15 0L0 4.02477V10.0569C0 15.6451 3.9 20.8703 9.15 22.1413C9.66 22.0202 10.14 21.8487 10.62 21.6571C9.69 20.376 9.13 18.8125 9.13 17.0977C9.13 12.851 12.55 9.40121 16.76 9.40121L16.75 9.41129Z" />
<path d="M17.625 11.2002C14.1088 11.2002 11.25 14.0702 11.25 17.6002C11.25 21.1302 14.1088 24.0002 17.625 24.0002C21.1412 24.0002 24 21.1302 24 17.6002C24 14.0702 21.1412 11.2002 17.625 11.2002ZM17.625 14.1702C18.5713 14.1702 19.3383 14.9402 19.3383 15.8902C19.3383 16.8402 18.5713 17.6102 17.625 17.6102C16.6787 17.6102 15.9117 16.8402 15.9117 15.8902C15.9117 14.9402 16.6688 14.1702 17.625 14.1702ZM21.0416 21.0302H14.2084V20.4602C14.2084 19.3202 16.4895 18.6802 17.625 18.6802C18.7605 18.6802 21.0416 19.3102 21.0416 20.4602V21.0302Z" />
</g>
<defs>
<clipPath id="clip0_6583_18815">
<rect width="24" height="23.9872" />
</clipPath>
</defs>
</svg>
