<svg width="24" height="24" viewBox="0 0 24 24" fill="none" xmlns="http://www.w3.org/2000/svg">
<path d="M22.0122 12H14.0078V5.6H22.0122V12ZM14.0078 19.15H2.00111V17.3333C2.00111 15.2 4.5 14.0196 8.00445 14.0196C11.5089 14.0196 14.0078 15.2 14.0078 17.3333V19.15ZM8.00445 5.6C9.6587 5.6 11.0061 7.03644 11.0061 8.8C11.0061 10.5636 9.6587 12 8.00445 12C6.35019 12 5.00278 10.5636 5.00278 8.8C5.00278 7.03644 6.33685 5.6 8.00445 5.6ZM22.0122 0H2.00111C0.89383 0 0 0.952889 0 2.13333V21.8667C0 23.0329 0.907171 24 2.00111 24H22.0122C23.1062 24 24 23.0329 24 21.8667V2.13333C24 0.952889 23.1062 0 22.0122 0ZM21.0117 7.73333V6.66667L18.01 8.8L15.0083 6.66667V7.73333L18.01 9.86667L21.0117 7.73333Z" />
</svg>
