<svg width="55" height="55" viewBox="0 0 55 55" fill="none" xmlns="http://www.w3.org/2000/svg">
<g clip-path="url(#clip0_1295_1298)">
<path d="M25.9736 -0.0195312C40.3216 -0.0195312 51.9473 11.5966 51.9473 25.9326C51.9472 31.6594 50.0864 36.9493 46.9521 41.2412L53.8301 48.1592C55.3909 49.7188 55.3909 52.2519 53.8301 53.8115C52.2692 55.3711 49.7338 55.3711 48.1729 53.8115L41.2959 46.8936C37.0003 50.0253 31.7053 51.8838 25.9736 51.8838C11.6258 51.8838 0.000220149 40.2684 0 25.9326C0 11.5966 11.6257 -0.0195212 25.9736 -0.0195312ZM17.9365 8.10547C15.4633 8.1055 13.4521 10.042 13.4521 12.4229V38.3223C13.4521 40.7031 15.4633 42.6386 17.9365 42.6387H35.873C38.3462 42.6386 40.3564 40.7031 40.3564 38.3223V19.6055C40.3564 18.4589 39.8876 17.3591 39.0469 16.5498L31.5781 9.36719C30.7374 8.55783 29.6022 8.10548 28.4111 8.10547H17.9365ZM36.2578 19.9766H29.707C28.7753 19.9764 28.0254 19.2544 28.0254 18.3574V12.0518L36.2578 19.9766Z" fill="white"/>
</g>
<defs>
<clipPath id="clip0_1295_1298">
<rect width="55" height="55" fill="white"/>
</clipPath>
</defs>
</svg>
