<?xml version="1.0" encoding="UTF-8"?>
<svg id="Layer_2" data-name="Layer 2" xmlns="http://www.w3.org/2000/svg" viewBox="0 0 56.95 85.87">
  <defs>
    <style>
      .cls-1 {
        fill: #036;
      }
    </style>
  </defs>
  <g id="PDF_preview" data-name="PDF preview">
    <path class="cls-1" d="M55.16,5.56l-3.76-3.77c-2.39-2.39-6.25-2.39-8.64,0h0l-4.62,4.62s.68,.43,1.61,1.04L17,30.68l-1.24-1.83-.23,.23c.05-.05,.09-.11,.15-.16L38.13,6.41C22.22-.8-1.23,7.37,.05,30.58c1.08,19.67,26.62,55.29,26.62,55.29,0,0,24.8-35.75,25.6-55.29,.18-4.48-.53-8.4-1.91-11.75l-22.29,22.5s-.06,.05-.09,.08l.18-.18-1.51-1.05,22.67-23.17c.36,.57,.71,1.17,1.05,1.8l4.81-4.63c2.39-2.39,2.39-6.25,0-8.64Zm-14.73,2.36c1.49,1,3.3,2.27,4.08,3.02,.03,.02,.07,.07,.1,.1l-24.17,24.7-2.96-4.36L40.44,7.93Zm-12.99,33.95c-.87,.71-1.87,1.25-2.95,1.58l-11.49,3.38c-.8,.23-3.92,2.38-4.51,1.78-.59-.59,1.44-3.83,1.67-4.64l3.38-11.49c.32-1.08,.86-2.08,1.57-2.94l5.16,6.81,7.17,5.52Zm-1.51-2.16l-4.9-3.39L45.19,11.64c.87,.92,2.26,2.54,3.65,4.67l-22.91,23.41Z"/>
  </g>
</svg>