<svg width="24" height="24" viewBox="0 0 24 24" fill="none" xmlns="http://www.w3.org/2000/svg">
<path d="M12 12.6826C10.7569 12.6826 9.75 13.6907 9.75 14.9326C9.75 16.1746 10.7569 17.1826 12 17.1826C13.2431 17.1826 14.25 16.1746 14.25 14.9326C14.25 13.6907 13.2431 12.6826 12 12.6826Z" />
<path d="M12.1725 0L0 12.825L3.075 12.7725V24H20.925V12.54L24 12.4875L12.1725 0ZM12.375 24C12 24 11.625 24 11.625 24C7.65 18.18 6.75 17.1375 6.75 15C6.75 12.0675 9.0975 9.6975 12 9.6975C14.9025 9.6975 17.25 12.075 17.25 15C17.25 17.1375 16.35 18.18 12.375 24Z" />
</svg>
