<svg width="24" height="24" viewBox="0 0 24 24" fill="none" xmlns="http://www.w3.org/2000/svg">
<path d="M18.6667 15H16V12H18.6667V15ZM18.6667 21H16V18H18.6667V21ZM5.33333 18H8V21H5.33333V18ZM5.33333 12H8V15H5.33333V12ZM5.33333 5.72331L6.66667 4.22329L7.45333 5.11164L8 5.72331V8.98544H5.33333V5.72331ZM13.3333 18V21H10.6667V18H13.3333ZM10.6667 15V12H13.3333V15H10.6667ZM12 4.22329L12.7867 5.11164L13.3333 5.72331V8.98544H10.6667V5.72331L11.2133 5.11164L12 4.22329ZM17.3333 4.22329L18.6667 5.72331V8.98544H16V5.72331L16.5467 5.11164L17.3333 4.22329ZM24 12V9.00001H21.3333V4.5L17.3333 0L14.6667 3L12 0L9.33333 3L6.66667 0L2.66667 4.5V9.00001H0V12H2.66667V15H0V18H2.66667V24H21.3333V18H24V15H21.3333V12H24Z" />
</svg>
