<svg width="24" height="24" viewBox="0 0 24 24" fill="none" xmlns="http://www.w3.org/2000/svg">
<g clip-path="url(#clip0_14089_33934)">
<path d="M21.83 0L8.06001 0.02C6.94001 0.1 6.12001 1.02 6.01001 2.1V15.75C6.04001 16.98 6.96001 17.89 8.18001 17.99H21.77C23 17.95 23.91 17.03 24.01 15.82V2.24C23.97 1.01 23.05 0.1 21.84 0H21.83ZM20.41 10.07H16.62V13.79H14.48V10.07H10.76V7.93H14.48V4.14H16.62V7.83L16.72 7.93H20.41V10.07Z"/>
<path d="M4.48 16.24V6H2.03C1.04 6 0.04 7.13 0 8.11V21.76C0.04 22.99 0.96 23.9 2.17 24H15.82C16.75 24.07 17.99 22.94 17.99 22.03V19.51H7.83C6.43 19.51 4.49 17.64 4.49 16.24H4.48Z"/>
</g>
<defs>
<clipPath id="clip0_14089_33934">
<rect width="24" height="24" fill="white"/>
</clipPath>
</defs>
</svg>
