<svg width="24" height="24" viewBox="0 0 24 24" fill="none" xmlns="http://www.w3.org/2000/svg">
<path d="M24 14.3972H15V15.9905C15 16.8726 14.3333 17.5839 13.5067 17.5839H10.5067C9.68 17.5839 9.01333 16.8726 9.01333 15.9905V14.3972H0V20.7991C0 22.5631 1.34667 24 3 24H21C22.6533 24 24 22.5631 24 20.7991V14.3972ZM6 2.8026V4.80853H3C1.34667 4.80853 0 6.2454 0 8.00948V12.018H24V8.00948C24 6.2454 22.6533 4.80853 21 4.80853H18V2.8026C18 1.25192 16.8267 0 15.3733 0H8.62667C7.17333 0 6 1.25192 6 2.8026ZM8.62667 2.40427H15.3733C15.5733 2.40427 15.7467 2.58921 15.7467 2.8026V4.80853H8.25333V2.8026C8.25333 2.58921 8.42667 2.40427 8.62667 2.40427Z" />
</svg>
