<svg width="37" height="36" viewBox="0 0 37 36" fill="none" xmlns="http://www.w3.org/2000/svg">
<path d="M6.73596 17.5884L0.10692 20.0903L0.042768 24.6665L0 29.264L9.02405 32.6427C14.0065 34.4817 18.1764 36 18.2833 36C18.4116 36 22.5601 34.4817 27.5426 32.6427L36.5667 29.264L36.5239 24.6879L36.4597 20.1117L29.7238 17.5884C26.0243 16.177 22.9664 15.0437 22.9237 15.0437C22.8809 15.0437 22.8809 15.8349 22.9237 16.7972L22.9878 18.5506L27.6923 20.3255C30.2798 21.2878 32.5678 22.1645 32.8031 22.2715C33.1024 22.3998 31.3703 23.1268 25.9174 25.1583C21.8972 26.6552 18.4544 27.8741 18.2619 27.8741C17.7915 27.8741 3.37867 22.4853 3.50698 22.357C3.57113 22.3142 5.85922 21.4375 8.59637 20.4111L13.5788 18.572L13.643 16.7972C13.6858 15.8349 13.6216 15.0437 13.5361 15.0651C13.4505 15.0651 10.3926 16.1984 6.73596 17.5884Z" fill="#003366"/>
<circle cx="18.5" cy="11.5" r="11.5" fill="#003366"/>
<path d="M25.2227 6.72266L20.4453 11.5L25.2227 16.2773L23.1016 18.3984L18.3242 13.6211L13.7227 18.2227L11.6016 16.1016L16.2031 11.5L11.6016 6.89844L13.7227 4.77734L18.3242 9.37891L23.1016 4.60156L25.2227 6.72266Z" fill="white"/>
</svg>
